<svg width="24" height="24" viewBox="0 0 35 39" fill="none" xmlns="http://www.w3.org/2000/svg">
<g clip-path="url(#clip0_506_151)">
<path d="M17.3349 38.9766C13.9886 38.9766 10.6424 39.047 7.29607 38.9766C0.544377 38.8357 -1.87961 34.3759 1.53762 28.4138C3.54776 24.7873 7.09505 22.4517 10.8434 23.5784C18.2099 25.8201 27.4565 19.1421 33.2386 28.1673C37.0815 34.1294 34.4211 38.8944 27.3265 39.0235C24.0157 39.0352 20.6694 38.9766 17.3349 38.9766ZM18.1508 35.1153C20.5157 35.1153 22.8805 35.2444 25.2454 35.1153C27.1964 34.9744 30.1998 35.972 30.2826 32.768C30.3535 30.0452 28.3434 27.4632 25.6119 27.6744C20.1951 28.0186 14.763 28.0578 9.34167 27.7918C8.79138 27.8001 8.24856 27.9195 7.74624 28.1427C7.24393 28.3659 6.79264 28.6883 6.41985 29.0901C6.04706 29.492 5.76057 29.9649 5.57783 30.4802C5.39509 30.9955 5.31991 31.5423 5.35688 32.0873C5.35688 35.2327 7.82816 35.0918 9.98019 35.1505C12.6761 35.2092 15.3721 35.1035 18.1508 35.1153Z" fill="black"/>
<path d="M17.4418 0C18.9169 0.00539433 20.3766 0.299128 21.7374 0.86443C23.0981 1.42973 24.3334 2.25553 25.3727 3.29468C26.4119 4.33383 27.2348 5.56597 27.7943 6.92076C28.3538 8.27555 28.6389 9.72646 28.6335 11.1906C28.6281 12.6548 28.3321 14.1036 27.7626 15.4543C27.1931 16.8049 26.3611 18.031 25.3141 19.0625C24.2672 20.0941 23.0258 20.9108 21.6609 21.4661C20.2959 22.0215 18.8342 22.3045 17.359 22.2991C14.4762 22.1391 11.7538 20.9304 9.71214 18.9039C7.67048 16.8774 6.45268 14.1753 6.29144 11.3139C6.26798 9.84239 6.53855 8.38089 7.08752 7.01381C7.63649 5.64674 8.45297 4.4012 9.48979 3.34918C10.5266 2.29716 11.7632 1.45952 13.1281 0.884658C14.493 0.309798 15.9591 0.00912022 17.4418 0V0ZM17.1343 17.6046C21.8641 17.6046 24.3354 15.1399 24.3235 10.8796C24.3568 9.99742 24.206 9.1179 23.8807 8.29624C23.5554 7.47458 23.0626 6.7285 22.4331 6.1048C21.8036 5.4811 21.0511 4.99323 20.2227 4.67178C19.3943 4.35034 18.5079 4.20226 17.6191 4.23683C13.6343 4.15468 11.0803 6.58411 11.0685 10.8209C11.0448 14.8348 12.9012 17.4403 17.1343 17.6046Z" fill="black"/>
</g>
<defs>
<clipPath id="clip0_506_151">
<rect width="35" height="39" fill="black"/>
</clipPath>
</defs>
</svg>
