<svg width="24" height="24" viewBox="0 0 48 41" fill="none" xmlns="http://www.w3.org/2000/svg">
<path d="M23.5603 38.4173L5.18526 19.9153C3.57371 18.3697 2.50742 16.3625 2.14096 14.1846C1.77451 12.0067 2.12692 9.77129 3.14714 7.80242C3.93316 6.31055 5.0669 5.02027 6.45685 4.03573C7.84681 3.05119 9.45403 2.39997 11.1488 2.13464C12.8435 1.86931 14.5784 1.99731 16.2132 2.50829C17.8481 3.01927 19.3371 3.89893 20.5603 5.07626L23.5603 7.75109L26.5603 5.07626C27.7836 3.8993 29.2727 3.01997 30.9075 2.50922C32.5422 1.99846 34.2769 1.87058 35.9715 2.13588C37.6662 2.40119 39.2733 3.05226 40.6632 4.03656C42.0532 5.02087 43.1871 6.31084 43.9734 7.80242C44.993 9.77149 45.3451 12.0067 44.9787 14.1845C44.6123 16.3623 43.5463 18.3694 41.9353 19.9153L23.5603 38.4173Z" stroke="black" stroke-width="4" stroke-linecap="round" stroke-linejoin="round"/>
</svg>
