<?xml version="1.0" standalone="no"?>
<!DOCTYPE svg PUBLIC "-//W3C//DTD SVG 20010904//EN"
 "http://www.w3.org/TR/2001/REC-SVG-20010904/DTD/svg10.dtd">
<svg version="1.0" xmlns="http://www.w3.org/2000/svg"
 width="20" height="20" viewBox="0 0 980.000000 864.000000"
 preserveAspectRatio="xMidYMid meet">

<g transform="translate(0.000000,864.000000) scale(0.100000,-0.100000)"
fill="#000000" stroke="none">
<path d="M2325 8624 c-356 -37 -715 -149 -1010 -317 -654 -371 -1109 -984
-1269 -1707 -33 -154 -46 -303 -46 -555 0 -276 12 -391 61 -587 75 -299 190
-566 348 -805 93 -140 169 -226 487 -553 344 -354 4065 -4090 4073 -4090 6 0
714 732 2191 2264 866 899 1806 1886 2059 2161 193 210 384 563 476 880 75
258 99 437 99 730 0 242 -8 337 -51 540 -50 243 -107 413 -203 606 -286 573
-777 1021 -1379 1259 -532 211 -1199 224 -1767 35 -433 -144 -645 -294 -1227
-865 l-268 -263 -77 74 c-42 41 -178 173 -302 294 -400 392 -506 476 -772 614
-264 137 -507 217 -815 267 -94 15 -513 27 -608 18z m525 -264 c228 -30 435
-90 657 -192 357 -165 475 -258 1051 -835 188 -189 343 -343 345 -343 1 0 178
175 392 388 215 213 435 426 490 471 141 118 270 200 447 286 349 169 663 234
1073 222 214 -6 342 -24 530 -72 894 -229 1551 -976 1689 -1922 43 -292 25
-582 -54 -889 -41 -157 -89 -285 -170 -449 -85 -172 -169 -299 -275 -419 -318
-355 -3440 -3602 -3949 -4106 l-117 -115 -1777 1780 c-1690 1693 -2245 2255
-2444 2480 -234 263 -424 723 -478 1155 -24 199 -7 547 36 745 59 267 182 567
312 764 118 178 423 505 572 612 370 267 751 410 1210 453 73 7 368 -2 460
-14z"/>
</g>
</svg>
