<svg width="60" height="60" viewBox="0 0 101 66" fill="none" xmlns="http://www.w3.org/2000/svg">
<path d="M100.756 33.9212C100.756 33.9023 100.756 33.8835 100.756 33.8646C100.747 33.2568 100.499 32.6769 100.066 32.2509C99.6321 31.8248 99.048 31.587 98.4401 31.5891H97.8316L88.4202 13.4099C88.2244 13.0327 87.9283 12.7169 87.5645 12.497C87.2008 12.2772 86.7834 12.162 86.3584 12.164H70.3002L70.9124 7.30748C71.0127 6.37885 70.9147 5.43951 70.6249 4.55157C70.3351 3.66364 69.8601 2.84735 69.2313 2.15666C68.6026 1.46598 67.8343 0.916627 66.9774 0.544955C66.1205 0.173283 65.1945 -0.0122447 64.2606 0.000626712H14.4201C13.8112 0.00388188 13.2251 0.232589 12.7749 0.642608C12.3247 1.05263 12.0424 1.61489 11.9824 2.22084L11.4795 6.22126H39.8797C40.3147 6.21901 40.7458 6.3045 41.147 6.47263C41.5483 6.64077 41.9115 6.88807 42.215 7.19978C42.5185 7.51149 42.756 7.88119 42.9133 8.28679C43.0707 8.69238 43.1447 9.12555 43.1308 9.56038C43.1031 10.4522 42.7306 11.2985 42.0917 11.9213C41.4527 12.5441 40.5971 12.8947 39.7049 12.8995H30.2332V12.9133H2.42387C1.79357 12.9166 1.18905 13.164 0.737302 13.6035C0.285552 14.0431 0.0217265 14.6406 0.00124494 15.2706C-0.00890986 15.5783 0.0431439 15.8849 0.154289 16.172C0.265433 16.4592 0.433383 16.7209 0.648079 16.9416C0.862775 17.1623 1.1198 17.3374 1.40376 17.4564C1.68773 17.5753 1.99278 17.6358 2.30067 17.6341H39.1241C39.9612 17.7613 40.7226 18.191 41.2643 18.8418C41.806 19.4926 42.0903 20.3193 42.0634 21.1656C42.0334 22.1165 41.6375 23.0191 40.9582 23.6852C40.279 24.3513 39.3688 24.7296 38.4175 24.7411H13.0359C12.3979 24.7444 11.7861 24.9953 11.3294 25.4409C10.8728 25.8865 10.607 26.492 10.5881 27.1298C10.5776 27.4407 10.63 27.7505 10.7422 28.0406C10.8543 28.3308 11.0238 28.5954 11.2407 28.8184C11.4575 29.0415 11.7171 29.2184 12.004 29.3387C12.2909 29.459 12.5991 29.5202 12.9102 29.5185H37.9989C38.844 29.6349 39.6164 30.0595 40.1677 30.7105C40.719 31.3616 41.0104 32.1934 40.986 33.0462C40.9561 34.0016 40.5568 34.9082 39.8722 35.5752C39.1875 36.2423 38.2709 36.6178 37.315 36.6229H8.53638H6.11753C5.47951 36.6262 4.86769 36.8771 4.41106 37.3227C3.95443 37.7683 3.68865 38.3738 3.66976 39.0116C3.65926 39.3225 3.71165 39.6323 3.82377 39.9225C3.9359 40.2126 4.10546 40.4772 4.3223 40.7002C4.53913 40.9233 4.79876 41.1003 5.08564 41.2205C5.37252 41.3408 5.68074 41.402 5.99181 41.4003H8.07876L7.26284 49.9417C7.16276 50.8702 7.26091 51.8094 7.55079 52.6972C7.84067 53.585 8.31569 54.4011 8.94445 55.0917C9.5732 55.7822 10.3414 56.3314 11.1982 56.703C12.055 57.0746 12.9809 57.2601 13.9147 57.2473H15.7163C16.139 59.6674 17.4046 61.8599 19.289 63.4363C21.1733 65.0128 23.5547 65.8715 26.0115 65.8604C28.5104 65.8429 30.9304 64.9833 32.8802 63.4203C34.8301 61.8574 36.1959 59.6825 36.7568 57.2473H59.2242C61.0177 57.2313 62.7478 56.5826 64.1097 55.4155C65.3624 56.6089 67.0314 57.2661 68.7614 57.2473H69.131C69.5537 59.6674 70.8193 61.8599 72.7037 63.4363C74.588 65.0128 76.9694 65.8715 79.4262 65.8604C81.9251 65.8429 84.3451 64.9833 86.295 63.4203C88.2448 61.8574 89.6106 59.6825 90.1715 57.2473H91.6512C93.5585 57.2106 95.3868 56.479 96.7931 55.1899C98.1993 53.9008 99.0867 52.1429 99.2887 50.2459L100.742 34.1537C100.742 34.1324 100.742 34.111 100.742 34.0884C100.742 34.0658 100.748 34.023 100.75 33.9891C100.751 33.9551 100.756 33.94 100.756 33.9212ZM26.1359 61.0868C25.3593 61.0902 24.59 60.9371 23.8738 60.6368C23.1576 60.3364 22.5093 59.8948 21.9675 59.3385C21.4256 58.7821 21.0014 58.1223 20.7201 57.3984C20.4388 56.6745 20.3062 55.9014 20.3302 55.1251C20.3815 53.5334 21.0473 52.0233 22.1879 50.9118C23.3284 49.8003 24.8552 49.1737 26.4477 49.1635C27.2243 49.1601 27.9937 49.3131 28.7099 49.6135C29.426 49.9139 30.0744 50.3554 30.6162 50.9118C31.158 51.4682 31.5823 52.128 31.8636 52.8519C32.1449 53.5758 32.2775 54.3489 32.2535 55.1251C32.2022 56.7169 31.5364 58.2269 30.3958 59.3384C29.2552 60.45 27.7285 61.0766 26.1359 61.0868ZM79.5532 61.0868C78.7766 61.0902 78.0072 60.9371 77.291 60.6368C76.5749 60.3364 75.9265 59.8948 75.3847 59.3385C74.8429 58.7821 74.4186 58.1223 74.1373 57.3984C73.856 56.6745 73.7234 55.9014 73.7474 55.1251C73.7987 53.5334 74.4645 52.0233 75.6051 50.9118C76.7457 49.8003 78.2724 49.1737 79.865 49.1635C80.6416 49.1601 81.4109 49.3131 82.1271 49.6135C82.8433 49.9139 83.4916 50.3554 84.0334 50.9118C84.5753 51.4682 84.9995 52.128 85.2808 52.8519C85.5621 53.5758 85.6947 54.3489 85.6707 55.1251C85.6194 56.7169 84.9536 58.2269 83.813 59.3384C82.6725 60.45 81.1457 61.0766 79.5532 61.0868ZM94.5428 49.9367C94.4628 50.621 94.1395 51.2538 93.6317 51.7196C93.124 52.1854 92.4657 52.453 91.7769 52.4737H90.1778C89.6499 50.1708 88.3541 48.1161 86.5033 46.6476C84.6525 45.1791 82.357 44.3842 79.9945 44.3937C77.5895 44.4104 75.2549 45.2071 73.3416 46.6641C71.4282 48.1211 70.0393 50.1598 69.3837 52.4737H68.8921C68.6074 52.4801 68.3246 52.4265 68.062 52.3162C67.7995 52.206 67.5631 52.0416 67.3684 51.8338C67.1777 51.6185 67.0344 51.3656 66.9478 51.0914C66.8611 50.8172 66.8331 50.5279 66.8655 50.2422L69.8727 16.9263H76.7785L75.6848 29.0583C75.5845 29.9869 75.6825 30.9263 75.9723 31.8142C76.2621 32.7021 76.7371 33.5184 77.3659 34.2091C77.9946 34.8998 78.7629 35.4492 79.6198 35.8208C80.4766 36.1925 81.4027 36.378 82.3366 36.3652H95.7673L94.5428 49.9367Z" fill="#FF6875"/>
</svg>
